<?xml version="1.0" encoding="utf-8"?>
<!-- Generator: Adobe Illustrator 21.1.0, SVG Export Plug-In . SVG Version: 6.00 Build 0)  -->
<svg version="1.1" id="Layer_1" xmlns="http://www.w3.org/2000/svg" xmlns:xlink="http://www.w3.org/1999/xlink" x="0px" y="0px"
	 width="88px" height="92px" viewBox="0 0 88 92" enable-background="new 0 0 88 92" xml:space="preserve">
<g>
	<g>
		<path fill="#1A1A1A" d="M25.4,90.4l2.9-5h1.4L26,91.9h-1.1l-3.7-6.5h1.4C22.6,85.4,25.4,90.4,25.4,90.4z M31.5,85.4h4
			c0.3,0,0.6,0.1,0.9,0.4s0.4,0.5,0.4,0.9v4c0,0.3-0.1,0.6-0.4,0.9S35.9,92,35.5,92h-4c-0.3,0-0.6-0.1-0.9-0.4s-0.4-0.5-0.4-0.9v-4
			c0-0.3,0.1-0.6,0.4-0.9S31.2,85.4,31.5,85.4z M31.5,90.6h4c0,0,0.1,0,0.1-0.1v-4c0,0,0-0.1-0.1-0.1h-4c0,0-0.1,0-0.1,0.1
			L31.5,90.6z M37.8,91.8v-6.5H39v5.3h5.3v1.2H37.8z M50,90.6v-5.2h1.2v5.2c0,0.3-0.1,0.6-0.4,0.9s-0.5,0.4-0.9,0.4h-4
			c-0.3,0-0.6-0.1-0.9-0.4s-0.4-0.5-0.4-0.9v-5.2h1.2v5.2c0,0,0,0.1,0.1,0.1C45.9,90.7,50,90.6,50,90.6z M55.9,88.2l2.3-2.8h1.3v6.5
			h-1.2v-4.8L55.9,90l-2.5-2.9v4.8h-1.2v-6.5h1.3C53.5,85.4,55.9,88.2,55.9,88.2z M66.6,85.4v1.2h-4.8V88h3.8v1.2h-3.8v1.5h4.8v1.2
			h-6v-6.5C60.6,85.4,66.6,85.4,66.6,85.4z"/>
	</g>
	
		<linearGradient id="SVGID_1_" gradientUnits="userSpaceOnUse" x1="22.2751" y1="87.4428" x2="66.1591" y2="12.2128" gradientTransform="matrix(1 0 0 -1 0 94.2)">
		<stop  offset="0" style="stop-color:#111111"/>
		<stop  offset="0.494" style="stop-color:#1A1A1A"/>
		<stop  offset="0.9" style="stop-color:#141414"/>
		<stop  offset="0.998" style="stop-color:#111111"/>
	</linearGradient>
	<circle fill="url(#SVGID_1_)" cx="44" cy="44" r="31.8"/>
	<g>
		<path fill="#1A1A1A" d="M3.6,54.8l-2.7-1.4l-0.3-1.3l6.3-1.4l0.3,1.1l-4.6,1l0.7,0.4C3.3,53.2,3.6,54.8,3.6,54.8z M0,40.2l0.5-3.9
			c0-0.3,0.2-0.6,0.5-0.8s0.6-0.3,0.9-0.2l1.4,0.2c0.3,0,0.6,0.2,0.8,0.5s0.3,0.6,0.2,0.9l-0.5,3.9v0.1L5.2,41c0,0,0.1,0,0.1-0.1
			L6,35.8L7.1,36l-0.8,6.3L3.8,42c-0.3,0-0.6-0.2-0.8-0.5s-0.3-0.6-0.2-0.9l0.5-3.9v-0.1l-1.4-0.2c0,0-0.1,0-0.1,0.1l-0.5,3.9
			c0,0,0,0.1,0.1,0.1l0.5,0.1l-0.2,1.2l-0.5-0.1c-0.3,0-0.6-0.2-0.8-0.5C0.1,40.9,0,40.6,0,40.2z M8.5,19.8l1.1,0.7
			c0.1,0.1,0.3,0.2,0.3,0.3c0.3-0.1,0.6,0,0.9,0.1l1.2,0.7c0.3,0.2,0.5,0.4,0.6,0.8c0.1,0.3,0,0.6-0.1,0.9l-2,3.4
			c-0.2,0.3-0.4,0.5-0.8,0.6c-0.3,0.1-0.6,0-0.9-0.1L8.5,27l0.6-1l0.3,0.2h0.1l2-3.4v-0.1L10.3,22h-0.1l-2,3.5l-1-0.6L9,21.5v-0.1
			l-1.1-0.7H7.8L6,24v0.1l0.4,0.2l-0.6,1l-0.4-0.2c-0.3-0.2-0.5-0.4-0.6-0.8c-0.1-0.3,0-0.6,0.1-0.9l1.8-3.2
			c0.2-0.3,0.4-0.5,0.8-0.6C7.9,19.6,8.2,19.6,8.5,19.8z M21,10.6l0.7-0.5l0.7,0.9l-0.7,0.5l1,1.3l-0.9,0.7l-1-1.3l-3.2,2.5
			l-0.7-0.9l1-5.5l0.9-0.7L21,10.6z M19,9.9l-0.7,2.8l1.8-1.4C20.1,11.3,19,9.9,19,9.9z M30.9,3.1l0.3,1.2h0.1l3.8-1
			c0.3-0.1,0.6,0,0.9,0.1s0.5,0.4,0.6,0.7L37,5.5c0.1,0.3,0,0.6-0.1,0.9c-0.2,0.3-0.4,0.5-0.7,0.6l-3.8,1c-0.3,0.1-0.6,0-0.9-0.1
			c-0.3-0.2-0.5-0.4-0.6-0.7l-0.1-0.5l1.1-0.3L32,6.9c0,0,0,0.1,0.1,0l3.8-1c0,0,0.1,0,0-0.1l-0.4-1.4h-0.1l-5,1.3l-1-3.6l6.2-1.7
			l0.3,1.1L30.9,3.1C30.9,3,30.9,3.1,30.9,3.1z M47.8,2.5L51.7,3c0.3,0,0.6,0.2,0.8,0.5s0.3,0.6,0.2,0.9l-0.2,1.4
			c0,0.3-0.2,0.6-0.5,0.8c-0.3,0.2-0.6,0.3-0.9,0.2l-3.9-0.5c-0.3,0-0.6-0.2-0.8-0.5s-0.3-0.6-0.2-0.9L46.7,1c0-0.3,0.2-0.6,0.5-0.8
			S47.8,0,48.1,0l4.1,0.6L52,1.7l-4.1-0.6c0,0-0.1,0-0.1,0.1V2.5C47.7,2.5,47.7,2.5,47.8,2.5z M51.3,5.7l0.2-1.4c0,0,0-0.1-0.1-0.1
			l-3.9-0.5l-0.2,1.5c0,0,0,0.1,0.1,0.1L51.3,5.7C51.3,5.8,51.3,5.8,51.3,5.7z M63.3,4.2l3.6,2c0.3,0.2,0.5,0.4,0.6,0.7
			c0.1,0.3,0.1,0.6-0.1,0.9l-2.6,4.5l-1-0.6l2.6-4.5V7.1l-3.6-2C62.8,5.1,63.3,4.2,63.3,4.2z M79.7,19.6l-1.2,0.9
			c-0.2,0.2-0.4,0.2-0.6,0.3c-0.1,0.2-0.2,0.4-0.4,0.5l-1.1,0.9c-0.3,0.2-0.6,0.3-0.9,0.3s-0.6-0.2-0.8-0.5l-2.5-3
			C72,18.7,72,18.4,72,18.1s0.2-0.6,0.5-0.8l1.1-0.9l0.6-0.3c0.1-0.2,0.2-0.4,0.4-0.5l1-0.8c0.3-0.2,0.6-0.3,0.9-0.3
			s0.6,0.2,0.8,0.5l2.4,3.1c0.2,0.2,0.3,0.5,0.3,0.8C80,19.1,79.9,19.4,79.7,19.6z M75.7,21.3l1.1-0.9v-0.1l-2.4-3.1h-0.1l-1.1,0.9
			v0.1L75.7,21.3C75.6,21.3,75.7,21.3,75.7,21.3z M77.7,19.7l1.1-0.8v-0.1l-2.4-3.1h-0.1l-1.1,0.8v0.1L77.7,19.7z M83.3,35l-1.1-3.8
			c-0.1-0.3-0.1-0.6,0.1-0.9s0.4-0.5,0.7-0.6l1.3-0.4c0.3-0.1,0.6-0.1,0.9,0.1s0.5,0.4,0.6,0.7L87,34c0.1,0.3,0.1,0.6-0.1,0.9
			c-0.2,0.3-0.4,0.5-0.7,0.6l-3.8,1.1c-0.3,0.1-0.6,0.1-0.9-0.1c-0.3-0.2-0.5-0.4-0.6-0.7L79.8,32c-0.1-0.3,0-0.6,0.1-0.9
			c0.2-0.3,0.4-0.5,0.7-0.6l1.4,5h0.1L83.3,35C83.3,35.1,83.3,35.1,83.3,35z M84.8,30.5l-1.3,0.4V31l1.1,3.8l1.4-0.4
			c0,0,0.1,0,0-0.1L84.8,30.5z M85.8,45.5l2.2,2.1L87.8,49l-6.4-0.5l0.1-1.2l4.7,0.4l-0.6-0.6C85.6,47.1,85.8,45.5,85.8,45.5z
			 M87.5,51.6l-0.9,3.8c-0.1,0.3-0.3,0.6-0.6,0.8c-0.3,0.2-0.6,0.2-0.9,0.2l-3.8-0.8c-0.3-0.1-0.6-0.3-0.8-0.5
			c-0.2-0.3-0.3-0.6-0.2-0.9l0.9-3.8c0.1-0.3,0.3-0.6,0.6-0.8c0.3-0.2,0.6-0.2,0.9-0.2l3.8,0.9c0.3,0.1,0.6,0.3,0.8,0.5
			C87.5,51,87.6,51.3,87.5,51.6z M82.3,50.9l-0.8,3.4v0.1l2.8,0.6L82.3,50.9z M85.6,54.7l0.7-3.4v-0.1l-2.8-0.6
			C83.5,50.6,85.6,54.7,85.6,54.7z"/>
	</g>
</g>
</svg>
