<svg xmlns="http://www.w3.org/2000/svg" width="1106" height="874.6"><linearGradient id="a" x1="-23.478" x2="423.512" y1="469.411" y2="983.615" gradientUnits="userSpaceOnUse"><stop offset="0" stop-color="#6D6E70"/><stop offset=".182" stop-color="#58595B"/><stop offset=".284" stop-color="#555557"/><stop offset=".432" stop-color="#404041"/><stop offset=".491" stop-color="#424244"/><stop offset=".547" stop-color="#58595B"/><stop offset=".586" stop-color="#58595B"/><stop offset=".652" stop-color="#6A6B6D"/><stop offset=".66" stop-color="#6D6E70"/><stop offset=".869" stop-color="#626365"/><stop offset="1" stop-color="#58595B"/></linearGradient><path fill="url(#a)" d="M129.6 796.5c-21 0-38-17-38-38-17.5-107.1-25.7-215.3-25-324.6H17.4v411.3c0 6.6 5.4 12 12 12h539.5v-39.6c-152.7 1.1-283.1-6.2-439.3-21.1z"/><linearGradient id="b" x1="696.522" x2="1143.512" y1="-364.367" y2="149.837" gradientUnits="userSpaceOnUse" gradientTransform="matrix(1 0 0 -1 -720 40.8)"><stop offset="0" stop-color="#6D6E70"/><stop offset=".182" stop-color="#58595B"/><stop offset=".284" stop-color="#555557"/><stop offset=".432" stop-color="#404041"/><stop offset=".491" stop-color="#424244"/><stop offset=".547" stop-color="#58595B"/><stop offset=".586" stop-color="#58595B"/><stop offset=".652" stop-color="#6A6B6D"/><stop offset=".66" stop-color="#6D6E70"/><stop offset=".869" stop-color="#626365"/><stop offset="1" stop-color="#58595B"/></linearGradient><path fill="url(#b)" d="M129.6 78.1c-21 0-38 17-38 38-17.5 107.1-25.7 215.3-25 324.6H17.4V29.4c0-6.6 5.4-12 12-12h539.5V57c-152.7-1.2-283.1 6.2-439.3 21.1z"/><linearGradient id="c" x1="775.363" x2="1220.278" y1="470.605" y2="982.421" gradientUnits="userSpaceOnUse" gradientTransform="matrix(-1 0 0 1 1906.214 0)"><stop offset="0" stop-color="#6D6E70"/><stop offset=".182" stop-color="#58595B"/><stop offset=".284" stop-color="#555557"/><stop offset=".432" stop-color="#404041"/><stop offset=".491" stop-color="#424244"/><stop offset=".547" stop-color="#58595B"/><stop offset=".586" stop-color="#58595B"/><stop offset=".652" stop-color="#6A6B6D"/><stop offset=".66" stop-color="#6D6E70"/><stop offset=".869" stop-color="#626365"/><stop offset="1" stop-color="#58595B"/></linearGradient><path fill="url(#c)" d="M976.4 796.5c21 0 38-17 38-38 17.5-107.1 25.7-215.3 25-324.6h49.2v411.3c0 6.6-5.4 12-12 12H541.9v-39.6c152.7 1.1 278.3-6.2 434.5-21.1z"/><linearGradient id="d" x1="1495.363" x2="1940.278" y1="-363.173" y2="148.643" gradientUnits="userSpaceOnUse" gradientTransform="rotate(180 1313.107 20.4)"><stop offset="0" stop-color="#6D6E70"/><stop offset=".182" stop-color="#58595B"/><stop offset=".284" stop-color="#555557"/><stop offset=".432" stop-color="#404041"/><stop offset=".491" stop-color="#424244"/><stop offset=".547" stop-color="#58595B"/><stop offset=".586" stop-color="#58595B"/><stop offset=".652" stop-color="#6A6B6D"/><stop offset=".66" stop-color="#6D6E70"/><stop offset=".869" stop-color="#626365"/><stop offset="1" stop-color="#58595B"/></linearGradient><path fill="url(#d)" d="M976.4 78.1c21 0 38 17 38 38 17.5 107.1 25.7 215.3 25 324.6h49.2V29.4c0-6.6-5.4-12-12-12H541.9V57c152.7-1.2 278.3 6.2 434.5 21.1z"/><path fill="#6D6E70" d="M1077.6 17.4c6.1 0 11 4.9 11 11v817.8c0 6.1-4.9 11-11 11H28.4c-6.1 0-11-4.9-11-11V28.4c0-6.1 4.9-11 11-11h1049.2m0-8.7H28.4c-10.9 0-19.7 8.8-19.7 19.7v817.8c0 10.9 8.8 19.7 19.7 19.7h1049.3c10.9 0 19.7-8.8 19.7-19.7V28.4c-.1-10.9-8.9-19.7-19.8-19.7z"/><path fill="#404041" d="M1077.6 8.7c10.9 0 19.7 8.8 19.7 19.7v817.8c0 10.9-8.8 19.7-19.7 19.7H28.4c-10.9 0-19.7-8.8-19.7-19.7V28.4c0-10.9 8.8-19.7 19.7-19.7h1049.2m0-8.7H28.4C12.7 0 0 12.7 0 28.4v817.8c0 15.6 12.7 28.4 28.4 28.4h1049.3c15.6 0 28.4-12.7 28.4-28.4V28.4C1106 12.7 1093.3 0 1077.6 0z"/></svg>