<?xml version="1.0" encoding="utf-8"?>
<!-- Generator: Adobe Illustrator 21.1.0, SVG Export Plug-In . SVG Version: 6.00 Build 0)  -->
<svg version="1.1" id="Layer_1" xmlns="http://www.w3.org/2000/svg" xmlns:xlink="http://www.w3.org/1999/xlink" x="0px" y="0px"
	 width="53px" height="53px" viewBox="0 0 53 53" enable-background="new 0 0 53 53" xml:space="preserve">
<radialGradient id="SVGID_1_" cx="26.4998" cy="26.4998" r="26.4998" gradientTransform="matrix(0.4091 -0.9125 0.9125 0.4091 -8.5214 39.8414)" gradientUnits="userSpaceOnUse">
	<stop  offset="0" style="stop-color:#595959"/>
	<stop  offset="0.4261" style="stop-color:#4C4C4C"/>
	<stop  offset="1" style="stop-color:#333333"/>
</radialGradient>
<circle fill="url(#SVGID_1_)" cx="26.5" cy="26.5" r="26.5"/>
<g>
	
		<radialGradient id="SVGID_2_" cx="26.4998" cy="26.4998" r="23.9336" gradientTransform="matrix(0.4091 -0.9125 0.9125 0.4091 -8.5214 39.8414)" gradientUnits="userSpaceOnUse">
		<stop  offset="0" style="stop-color:#1A1A1A"/>
		<stop  offset="0.6518" style="stop-color:#171717"/>
		<stop  offset="0.9977" style="stop-color:#111111"/>
	</radialGradient>
	<circle fill="url(#SVGID_2_)" cx="26.5" cy="26.5" r="23.9"/>
	<path fill="#808080" d="M48.8,36.5c-5.5,12.3-20,17.8-32.3,12.3s-17.8-20-12.3-32.3s20-17.8,32.3-12.3S54.3,24.2,48.8,36.5z
		 M5.1,16.9c-5.3,11.8,0,25.7,11.8,31s25.7,0,31-11.8s0-25.7-11.8-31S10.4,5.1,5.1,16.9z"/>
</g>
<rect x="2.8" y="28.9" transform="matrix(0.9682 -0.25 0.25 0.9682 -7.0101 3.5672)" fill="#808080" width="15.4" height="1"/>
</svg>
