<svg xmlns="http://www.w3.org/2000/svg" width="272.5" height="261.4" xmlns:xlink="http://www.w3.org/1999/xlink"><radialGradient id="a" cx="136.914" cy="131.009" r="119.113" gradientUnits="userSpaceOnUse"><stop offset="0" stop-color="#6D6E70"/><stop offset=".054" stop-color="#6A6B6D"/><stop offset=".663" stop-color="#4C4C4D"/><stop offset="1" stop-color="#404041"/></radialGradient><circle cx="136.9" cy="131" r="119.1" fill="url(#a)" opacity=".3"/><path fill="#929497" d="M0 1h272.5v4.8H0z"/><linearGradient id="b" x1=".241" x2="272.234" y1="9.471" y2="-4.649" gradientUnits="userSpaceOnUse"><stop offset="0" stop-color="#BBBDBF"/><stop offset=".361" stop-color="#BFC1C3"/><stop offset=".741" stop-color="#CCCDCE"/><stop offset="1" stop-color="#D9D9D9"/></linearGradient><path fill="url(#b)" d="M0 0h272.5v4.8H0z"/><path fill="#929497" d="M0 9.8h272.5v4.8H0z"/><linearGradient id="c" x1=".241" x2="272.234" y1="18.285" y2="4.164" gradientUnits="userSpaceOnUse"><stop offset="0" stop-color="#BBBDBF"/><stop offset=".361" stop-color="#BFC1C3"/><stop offset=".741" stop-color="#CCCDCE"/><stop offset="1" stop-color="#D9D9D9"/></linearGradient><path fill="url(#c)" d="M0 8.8h272.5v4.8H0z"/><path fill="#929497" d="M0 18.6h272.5v4.8H0z"/><linearGradient id="d" x1=".241" x2="272.234" y1="27.098" y2="12.978" gradientUnits="userSpaceOnUse"><stop offset="0" stop-color="#BBBDBF"/><stop offset=".361" stop-color="#BFC1C3"/><stop offset=".741" stop-color="#CCCDCE"/><stop offset="1" stop-color="#D9D9D9"/></linearGradient><path fill="url(#d)" d="M0 17.6h272.5v4.8H0z"/><path fill="#929497" d="M0 27.4h272.5v4.8H0z"/><linearGradient id="e" x1=".241" x2="272.234" y1="35.911" y2="21.791" gradientUnits="userSpaceOnUse"><stop offset="0" stop-color="#BBBDBF"/><stop offset=".361" stop-color="#BFC1C3"/><stop offset=".741" stop-color="#CCCDCE"/><stop offset="1" stop-color="#D9D9D9"/></linearGradient><path fill="url(#e)" d="M0 26.4h272.5v4.8H0z"/><path fill="#929497" d="M0 36.2h272.5V41H0z"/><linearGradient id="f" x1=".241" x2="272.234" y1="44.725" y2="30.605" gradientUnits="userSpaceOnUse"><stop offset="0" stop-color="#BBBDBF"/><stop offset=".361" stop-color="#BFC1C3"/><stop offset=".741" stop-color="#CCCDCE"/><stop offset="1" stop-color="#D9D9D9"/></linearGradient><path fill="url(#f)" d="M0 35.3h272.5v4.8H0z"/><path fill="#929497" d="M0 45h272.5v4.8H0z"/><linearGradient id="g" x1=".241" x2="272.234" y1="53.538" y2="39.418" gradientUnits="userSpaceOnUse"><stop offset="0" stop-color="#BBBDBF"/><stop offset=".361" stop-color="#BFC1C3"/><stop offset=".741" stop-color="#CCCDCE"/><stop offset="1" stop-color="#D9D9D9"/></linearGradient><path fill="url(#g)" d="M0 44.1h272.5v4.8H0z"/><path fill="#929497" d="M0 53.8h272.5v4.8H0z"/><linearGradient id="h" x1=".241" x2="272.234" y1="62.352" y2="48.231" gradientUnits="userSpaceOnUse"><stop offset="0" stop-color="#BBBDBF"/><stop offset=".361" stop-color="#BFC1C3"/><stop offset=".741" stop-color="#CCCDCE"/><stop offset="1" stop-color="#D9D9D9"/></linearGradient><path fill="url(#h)" d="M0 52.9h272.5v4.8H0z"/><path fill="#929497" d="M0 62.7h272.5v4.8H0z"/><linearGradient id="i" x1=".241" x2="272.234" y1="71.165" y2="57.045" gradientUnits="userSpaceOnUse"><stop offset="0" stop-color="#BBBDBF"/><stop offset=".361" stop-color="#BFC1C3"/><stop offset=".741" stop-color="#CCCDCE"/><stop offset="1" stop-color="#D9D9D9"/></linearGradient><path fill="url(#i)" d="M0 61.7h272.5v4.8H0z"/><path fill="#929497" d="M0 71.5h272.5v4.8H0z"/><linearGradient id="j" x1=".241" x2="272.234" y1="79.978" y2="65.858" gradientUnits="userSpaceOnUse"><stop offset="0" stop-color="#BBBDBF"/><stop offset=".361" stop-color="#BFC1C3"/><stop offset=".741" stop-color="#CCCDCE"/><stop offset="1" stop-color="#D9D9D9"/></linearGradient><path fill="url(#j)" d="M0 70.5h272.5v4.8H0z"/><path fill="#929497" d="M0 80.3h272.5v4.8H0z"/><linearGradient id="k" x1=".241" x2="272.234" y1="88.792" y2="74.671" gradientUnits="userSpaceOnUse"><stop offset="0" stop-color="#BBBDBF"/><stop offset=".361" stop-color="#BFC1C3"/><stop offset=".741" stop-color="#CCCDCE"/><stop offset="1" stop-color="#D9D9D9"/></linearGradient><path fill="url(#k)" d="M0 79.3h272.5v4.8H0z"/><path fill="#929497" d="M0 89.1h272.5v4.8H0z"/><linearGradient id="l" x1=".241" x2="272.234" y1="97.605" y2="83.485" gradientUnits="userSpaceOnUse"><stop offset="0" stop-color="#BBBDBF"/><stop offset=".361" stop-color="#BFC1C3"/><stop offset=".741" stop-color="#CCCDCE"/><stop offset="1" stop-color="#D9D9D9"/></linearGradient><path fill="url(#l)" d="M0 88.1h272.5v4.8H0z"/><path fill="#929497" d="M0 97.9h272.5v4.8H0z"/><linearGradient id="m" x1=".241" x2="272.234" y1="106.418" y2="92.298" gradientUnits="userSpaceOnUse"><stop offset="0" stop-color="#BBBDBF"/><stop offset=".361" stop-color="#BFC1C3"/><stop offset=".741" stop-color="#CCCDCE"/><stop offset="1" stop-color="#D9D9D9"/></linearGradient><path fill="url(#m)" d="M0 96.9h272.5v4.8H0z"/><path fill="#929497" d="M0 106.7h272.5v4.8H0z"/><linearGradient id="n" x1=".241" x2="272.234" y1="115.232" y2="101.111" gradientUnits="userSpaceOnUse"><stop offset="0" stop-color="#BBBDBF"/><stop offset=".361" stop-color="#BFC1C3"/><stop offset=".741" stop-color="#CCCDCE"/><stop offset="1" stop-color="#D9D9D9"/></linearGradient><path fill="url(#n)" d="M0 105.8h272.5v4.8H0z"/><path fill="#929497" d="M0 115.5h272.5v4.8H0z"/><linearGradient id="o" x1=".241" x2="272.234" y1="124.045" y2="109.925" gradientUnits="userSpaceOnUse"><stop offset="0" stop-color="#BBBDBF"/><stop offset=".361" stop-color="#BFC1C3"/><stop offset=".741" stop-color="#CCCDCE"/><stop offset="1" stop-color="#D9D9D9"/></linearGradient><path fill="url(#o)" d="M0 114.6h272.5v4.8H0z"/><path fill="#929497" d="M0 124.4h272.5v4.8H0z"/><linearGradient id="p" x1=".241" x2="272.234" y1="132.858" y2="118.738" gradientUnits="userSpaceOnUse"><stop offset="0" stop-color="#BBBDBF"/><stop offset=".361" stop-color="#BFC1C3"/><stop offset=".741" stop-color="#CCCDCE"/><stop offset="1" stop-color="#D9D9D9"/></linearGradient><path fill="url(#p)" d="M0 123.4h272.5v4.8H0z"/><path fill="#929497" d="M0 133.2h272.5v4.8H0z"/><linearGradient id="q" x1=".241" x2="272.234" y1="141.672" y2="127.551" gradientUnits="userSpaceOnUse"><stop offset="0" stop-color="#BBBDBF"/><stop offset=".361" stop-color="#BFC1C3"/><stop offset=".741" stop-color="#CCCDCE"/><stop offset="1" stop-color="#D9D9D9"/></linearGradient><path fill="url(#q)" d="M0 132.2h272.5v4.8H0z"/><path fill="#929497" d="M0 142h272.5v4.8H0z"/><linearGradient id="r" x1=".241" x2="272.234" y1="150.485" y2="136.365" gradientUnits="userSpaceOnUse"><stop offset="0" stop-color="#BBBDBF"/><stop offset=".361" stop-color="#BFC1C3"/><stop offset=".741" stop-color="#CCCDCE"/><stop offset="1" stop-color="#D9D9D9"/></linearGradient><path fill="url(#r)" d="M0 141h272.5v4.8H0z"/><path fill="#929497" d="M0 150.8h272.5v4.8H0z"/><linearGradient id="s" x1=".241" x2="272.234" y1="159.298" y2="145.178" gradientUnits="userSpaceOnUse"><stop offset="0" stop-color="#BBBDBF"/><stop offset=".361" stop-color="#BFC1C3"/><stop offset=".741" stop-color="#CCCDCE"/><stop offset="1" stop-color="#D9D9D9"/></linearGradient><path fill="url(#s)" d="M0 149.8h272.5v4.8H0z"/><g><path fill="#929497" d="M0 159.6h272.5v4.8H0z"/><linearGradient id="t" x1=".241" x2="272.234" y1="168.112" y2="153.992" gradientUnits="userSpaceOnUse"><stop offset="0" stop-color="#BBBDBF"/><stop offset=".361" stop-color="#BFC1C3"/><stop offset=".741" stop-color="#CCCDCE"/><stop offset="1" stop-color="#D9D9D9"/></linearGradient><path fill="url(#t)" d="M0 158.6h272.5v4.8H0z"/></g><g><path fill="#929497" d="M0 168.4h272.5v4.8H0z"/><linearGradient id="u" x1=".241" x2="272.234" y1="176.925" y2="162.805" gradientUnits="userSpaceOnUse"><stop offset="0" stop-color="#BBBDBF"/><stop offset=".361" stop-color="#BFC1C3"/><stop offset=".741" stop-color="#CCCDCE"/><stop offset="1" stop-color="#D9D9D9"/></linearGradient><path fill="url(#u)" d="M0 167.5h272.5v4.8H0z"/></g><g><path fill="#929497" d="M0 177.2h272.5v4.8H0z"/><linearGradient id="v" x1=".241" x2="272.234" y1="185.738" y2="171.618" gradientUnits="userSpaceOnUse"><stop offset="0" stop-color="#BBBDBF"/><stop offset=".361" stop-color="#BFC1C3"/><stop offset=".741" stop-color="#CCCDCE"/><stop offset="1" stop-color="#D9D9D9"/></linearGradient><path fill="url(#v)" d="M0 176.3h272.5v4.8H0z"/></g><g><path fill="#929497" d="M0 186h272.5v4.8H0z"/><linearGradient id="w" x1=".241" x2="272.234" y1="194.552" y2="180.432" gradientUnits="userSpaceOnUse"><stop offset="0" stop-color="#BBBDBF"/><stop offset=".361" stop-color="#BFC1C3"/><stop offset=".741" stop-color="#CCCDCE"/><stop offset="1" stop-color="#D9D9D9"/></linearGradient><path fill="url(#w)" d="M0 185.1h272.5v4.8H0z"/></g><g><path fill="#929497" d="M0 194.9h272.5v4.8H0z"/><linearGradient id="x" x1=".241" x2="272.234" y1="203.365" y2="189.245" gradientUnits="userSpaceOnUse"><stop offset="0" stop-color="#BBBDBF"/><stop offset=".361" stop-color="#BFC1C3"/><stop offset=".741" stop-color="#CCCDCE"/><stop offset="1" stop-color="#D9D9D9"/></linearGradient><path fill="url(#x)" d="M0 193.9h272.5v4.8H0z"/></g><g><path fill="#929497" d="M0 203.7h272.5v4.8H0z"/><linearGradient id="y" x1=".241" x2="272.234" y1="212.179" y2="198.058" gradientUnits="userSpaceOnUse"><stop offset="0" stop-color="#BBBDBF"/><stop offset=".361" stop-color="#BFC1C3"/><stop offset=".741" stop-color="#CCCDCE"/><stop offset="1" stop-color="#D9D9D9"/></linearGradient><path fill="url(#y)" d="M0 202.7h272.5v4.8H0z"/></g><g><path fill="#929497" d="M0 212.5h272.5v4.8H0z"/><linearGradient id="z" x1=".241" x2="272.234" y1="220.992" y2="206.872" gradientUnits="userSpaceOnUse"><stop offset="0" stop-color="#BBBDBF"/><stop offset=".361" stop-color="#BFC1C3"/><stop offset=".741" stop-color="#CCCDCE"/><stop offset="1" stop-color="#D9D9D9"/></linearGradient><path fill="url(#z)" d="M0 211.5h272.5v4.8H0z"/></g><g><path fill="#929497" d="M0 221.3h272.5v4.8H0z"/><linearGradient id="A" x1=".241" x2="272.234" y1="229.805" y2="215.685" gradientUnits="userSpaceOnUse"><stop offset="0" stop-color="#BBBDBF"/><stop offset=".361" stop-color="#BFC1C3"/><stop offset=".741" stop-color="#CCCDCE"/><stop offset="1" stop-color="#D9D9D9"/></linearGradient><path fill="url(#A)" d="M0 220.3h272.5v4.8H0z"/></g><g><path fill="#929497" d="M0 230.1h272.5v4.8H0z"/><linearGradient id="B" x1=".241" x2="272.234" y1="238.619" y2="224.498" gradientUnits="userSpaceOnUse"><stop offset="0" stop-color="#BBBDBF"/><stop offset=".361" stop-color="#BFC1C3"/><stop offset=".741" stop-color="#CCCDCE"/><stop offset="1" stop-color="#D9D9D9"/></linearGradient><path fill="url(#B)" d="M0 229.1h272.5v4.8H0z"/></g><g><path fill="#929497" d="M0 238.9h272.5v4.8H0z"/><linearGradient id="C" x1=".241" x2="272.234" y1="247.432" y2="233.312" gradientUnits="userSpaceOnUse"><stop offset="0" stop-color="#BBBDBF"/><stop offset=".361" stop-color="#BFC1C3"/><stop offset=".741" stop-color="#CCCDCE"/><stop offset="1" stop-color="#D9D9D9"/></linearGradient><path fill="url(#C)" d="M0 238h272.5v4.8H0z"/></g><g><path fill="#929497" d="M0 247.7h272.5v4.8H0z"/><linearGradient id="D" x1=".241" x2="272.234" y1="256.245" y2="242.125" gradientUnits="userSpaceOnUse"><stop offset="0" stop-color="#BBBDBF"/><stop offset=".361" stop-color="#BFC1C3"/><stop offset=".741" stop-color="#CCCDCE"/><stop offset="1" stop-color="#D9D9D9"/></linearGradient><path fill="url(#D)" d="M0 246.8h272.5v4.8H0z"/></g><g><path fill="#929497" d="M0 256.6h272.5v4.8H0z"/><linearGradient id="E" x1=".241" x2="272.234" y1="265.059" y2="250.939" gradientUnits="userSpaceOnUse"><stop offset="0" stop-color="#BBBDBF"/><stop offset=".361" stop-color="#BFC1C3"/><stop offset=".741" stop-color="#CCCDCE"/><stop offset="1" stop-color="#D9D9D9"/></linearGradient><path fill="url(#E)" d="M0 255.6h272.5v4.8H0z"/></g><g><image width="184" height="165" overflow="visible" opacity=".5" xlink:href="822B397A5055A368.png" transform="translate(53.515 61.14)"/><g fill="#323031"><path d="M227.5 187.7c-.4-1.4-1.7-2.3-3.1-2.3-.3 0-.6 0-.9.1l-5.7 1.8.1-.2c1-1.9 2.5-5.5 1-8.7-.5-1-1.8-2.8-4.7-3.3-.6-.1-1.2-.1-1.8-.1-1.6 0-3.3.3-5.1 1 1.7-2.9 3.4-5.6 4.9-8.2 7.1-9.8 12-18.7 12.2-19.1.4-.7.5-1.6.3-2.4-.2-.8-.8-1.5-1.5-1.9-.5-.3-1-.4-1.6-.4-1.2 0-2.2.6-2.8 1.6-.1.1-6.1 10.8-14.2 21.6-3.6 4.8-7.1 9-10.5 12.6-.2-1.9-.9-3.6-2-4.9-.6-.7-1.7-1.6-3.3-2.1 2.4-4.7 3.7-10 3.7-15.3 0-10.8-4.9-20.6-13.5-27 8.6-6.4 13.5-16.2 13.5-27 0-18.6-15.1-33.8-33.8-33.8-8 0-15.8 2.9-21.9 8.1-4.1 3.5-7.3 8-9.4 13-2-5-5.3-9.5-9.4-13-6.1-5.2-13.9-8.1-21.9-8.1-18.6 0-33.8 15.1-33.8 33.8 0 10.8 4.9 20.6 13.5 27-8.6 6.4-13.5 16.2-13.5 27 0 18.6 15.1 33.8 33.8 33.8 8 0 15.8-2.9 21.9-8.1 4.1-3.5 7.3-8 9.4-13 1.2 2.9 2.8 5.6 4.7 8.1l.8 1c-.9 1.8-1.8 3.5-2.7 5-3.1 2.7-7.1 6.4-8 8.3-1.2 2.6.1 4.2.6 4.7.7.7 1.7 1.2 2.8 1.2.5 0 1.1-.1 1.6-.3 2.9-1.1 4.7-4.1 6-6.4.2-.3.3-.5.5-.8.5-.8 1.1-1.7 1.6-2.6.6-.5 1.2-.9 1.7-1.4 5.1-4 7.9-5.2 9-5.6.2 1.5.1 3.2-.1 4.8 0 .3-.1.6-.1 1-1 1.1-2 2.2-2.9 3.3-.5.7-1.6 2-1.5 3.9 0 1 .4 1.9 1 2.6.7.8 1.7 1.2 2.8 1.2.9 0 1.9-.3 2.7-.9 1.1-.8 2-1.9 2.7-3.4.5-1.1.9-2.2 1.2-3.6 1.4-1.4 2.7-2.6 3.8-3.5 1.5-1.3 3.6-3 5.9-4.4-.5 2-1.3 4-2.3 5.9-1.1.7-2.2 1.4-3.4 2.1-.8.5-1 .6-1.3.8-.3.3-1.3 1-1.6 2.5-.3 1.4.2 2.9 1.3 3.8.8.6 1.7 1 2.8 1h.1c.4 0 .7 0 1.1-.1-1.9 2.6-3.4 4.8-4.7 6.6-2.3 3.2-3.4 4.7-3.9 5.6-.8 1.3-.9 2.2-.4 3.2.5 1.2 1.7 1.9 2.9 1.9.4 0 .9-.1 1.3-.3.7-.3 1.3-.8 1.6-1.5.7-1.1 5.7-8 13.5-18.9 1.1.9 2.7 1.6 4.7 1.9 1 .2 2 .3 3.1.3 1.8 0 3.6-.2 5.4-.7 1.5-.3 3.3-1 5.2-2.1.1.4.2.7.4 1.1.7 1.3 2 2.1 3.4 2.1h.5c1.1-.1 1.8-.7 2-.9 1.1-.9 2-2 2.6-2.9l.2-.3c1.3-1.8 2.6-3.7 4.1-5.8.9-.6 1.8-1.3 2.7-1.9l.7-.5c2.1-1.4 6-4.1 9.1-4.1.3 0 .5 0 .7.1 0 .5-.3 1.5-.9 2.6l-.1.2c-1.3 2.2-2.4 4.5-3.6 6.8l-.1.2c-.8.4-1.9 1-2.9 1.8-.8.6-2.5 2.2-2.5 4.4 0 1.3.6 2.4 1.6 3.2.7.5 1.6.8 2.6.8.5 0 1.1-.1 1.6-.3 2.6-.9 3.7-3.4 4.4-5v-.1c3.6-1.7 7.7-3.2 12-4.4 1.6-.4 2.6-2.1 2.1-3.8zm-144-54.3l1.9-1 2.9-1.5.5-.3-.5-.3-2.9-1.5-1.9-1c-9-4.8-14.5-14-14.5-24.2 0-15.1 12.3-27.4 27.4-27.4 15.1 0 27.4 12.3 27.4 27.4 0 10.1-5.6 19.4-14.5 24.2l-1.9 1-2.9 1.5-.5.3.5.3 2.9 1.5 1.9 1c9 4.8 14.5 14 14.5 24.2 0 15.1-12.3 27.4-27.4 27.4-15.1 0-27.4-12.3-27.4-27.4-.1-10.2 5.5-19.5 14.5-24.2zm55.1-2.8c-4.9 3.7-8.7 8.6-11 14.3-2.3-5.7-6.1-10.6-11-14.3 4.9-3.7 8.7-8.6 11-14.3 2.3 5.7 6.1 10.6 11 14.3zm20.2 14.8c6.7 0 12.1 5.4 12.1 12.1 0 6.7-5.4 12.1-12.1 12.1-6.7 0-12.1-5.4-12.1-12.1 0-6.6 5.5-12.1 12.1-12.1zm18.6 12.2c0-10.2-8.3-18.5-18.5-18.5s-18.5 8.3-18.5 18.5 8.3 18.5 18.5 18.5h.9c-.8.4-1.5.8-2.4 1.4l-2.4-.5c-.8-.1-1.5-.3-2.2-.6l-3.3-1.1-2.8-2.2c-4.9-3.8-7.7-9.5-7.7-15.6 0-10.9 8.9-19.8 19.8-19.8s19.8 8.9 19.8 19.8c0 7.7-4.5 14.7-11.5 18l-.8.4c-.3-.2-.7-.4-1-.6-.2-.1-.4-.1-.6-.2 7.5-2.5 12.7-9.5 12.7-17.5zM146 133.4l1.9-1 2.9-1.5.5-.3-.5-.3-2.9-1.5-1.9-1c-9-4.8-14.5-14-14.5-24.2 0-15.1 12.3-27.4 27.4-27.4 15.1 0 27.4 12.3 27.4 27.4 0 10.1-5.6 19.4-14.5 24.2l-1.9 1-2.9 1.5-.5.3.5.3 2.9 1.5 1.9 1c9 4.8 14.5 14 14.5 24.2 0 4.8-1.3 9.5-3.7 13.7l-.8 1.4c-.3-.3-.6-.6-.9-.8 2.8-4.3 4.3-9.2 4.3-14.3 0-14.4-11.7-26.2-26.2-26.2-14.4 0-26.2 11.7-26.2 26.2 0 5.4 1.6 10.5 4.7 14.9-.4.1-.7.4-1 .6-3.2-4.6-4.9-9.9-4.9-15.5-.1-10.2 5.5-19.5 14.4-24.2zm33.6 46.4c.4.2.8.3 1.3.3.4 0 .8-.1 1.2-.2 1.6-.6 3-1 4-1 .7 0 1.2.1 1.4.4.6.7.7 3-1 6.2-1.8 3.5-5.7 5.6-10.1 5.6-.7 0-1.5-.1-2.2-.2-.8-.1-1.2-.3-1.5-.4-.1-.2-.2-.5-.4-.7 2.6-3.5 5.1-6.9 7.3-10z"/><path d="M185 103.6c0-14.4-11.7-26.2-26.2-26.2-14.4 0-26.2 11.7-26.2 26.2 0 14.4 11.7 26.2 26.2 26.2 14.5-.1 26.2-11.8 26.2-26.2zm-45.9 0c0-10.9 8.9-19.8 19.8-19.8s19.8 8.9 19.8 19.8-8.9 19.8-19.8 19.8c-11-.1-19.8-8.9-19.8-19.8z"/><path d="M158.8 85c-10.2 0-18.5 8.3-18.5 18.5s8.3 18.5 18.5 18.5 18.5-8.3 18.5-18.5c.1-10.2-8.2-18.5-18.5-18.5zm12.2 18.6c0 6.7-5.4 12.1-12.1 12.1-6.7 0-12.1-5.4-12.1-12.1 0-6.7 5.4-12.1 12.1-12.1 6.6-.1 12.1 5.4 12.1 12.1zm-48.5 0c0-14.4-11.7-26.2-26.2-26.2-14.4 0-26.2 11.7-26.2 26.2 0 14.4 11.7 26.2 26.2 26.2 14.4-.1 26.2-11.8 26.2-26.2zm-46 0c0-10.9 8.9-19.8 19.8-19.8s19.8 8.9 19.8 19.8-8.9 19.8-19.8 19.8c-10.9-.1-19.8-8.9-19.8-19.8z"/><path d="M96.3 85c-10.2 0-18.5 8.3-18.5 18.5S86.1 122 96.3 122s18.5-8.3 18.5-18.5S106.5 85 96.3 85zm12.1 18.6c0 6.7-5.4 12.1-12.1 12.1-6.7 0-12.1-5.4-12.1-12.1 0-6.7 5.4-12.1 12.1-12.1 6.7-.1 12.1 5.4 12.1 12.1zm-12.1 72.5c10.2 0 18.5-8.3 18.5-18.5s-8.3-18.5-18.5-18.5-18.5 8.3-18.5 18.5 8.3 18.5 18.5 18.5zm-12.1-18.5c0-6.7 5.4-12.1 12.1-12.1 6.7 0 12.1 5.4 12.1 12.1 0 6.7-5.4 12.1-12.1 12.1-6.7 0-12.1-5.5-12.1-12.1z"/><path d="M96.3 183.7c14.4 0 26.2-11.7 26.2-26.2 0-14.4-11.7-26.2-26.2-26.2-14.4 0-26.2 11.7-26.2 26.2s11.8 26.2 26.2 26.2zm-19.8-26.1c0-10.9 8.9-19.8 19.8-19.8s19.8 8.9 19.8 19.8-8.9 19.8-19.8 19.8c-10.9-.1-19.8-8.9-19.8-19.8z"/></g></g><g><linearGradient id="F" x1="212.875" x2="69.58" y1="206.547" y2="77.657" gradientUnits="userSpaceOnUse"><stop offset="0" stop-color="#808184"/><stop offset=".199" stop-color="#8D8E91"/><stop offset=".511" stop-color="#A8ABAD"/><stop offset=".664" stop-color="#939698"/><stop offset=".87" stop-color="#7D7F81"/><stop offset="1" stop-color="#757779"/></linearGradient><path fill="url(#F)" d="M225.6 188.2c-.2-.6-.8-1-1.4-.8-3.8 1.1-7.3 2.3-10.6 3.7.8-1.6 1.7-3.2 2.6-4.8l.2-.3c.7-1.2 2.1-4.4 1-6.8-.4-.8-1.3-1.9-3.2-2.2-4.1-.7-8.3 1.6-12.3 4.3.7-1.1 1.3-2.2 2-3.3l.8-1.3c2.2-3.6 4.2-6.9 6.1-10.1 7.2-9.9 12.1-18.9 12.2-19 .3-.6.1-1.3-.5-1.6-.6-.3-1.3-.1-1.6.5-.1.1-6.1 10.8-14.3 21.9-5.4 7.2-10.7 13.1-15.2 17.3 1.5-3.8 1.4-7.4-.5-9.4-1.4-1.6-4.3-2.9-10.3-.5-.6.2-.9.9-.6 1.5s.9.9 1.5.6c3.7-1.5 6.4-1.5 7.7-.1 1.4 1.6 1.2 5-.7 8.5-2.7 5.2-8.9 7.5-14.5 6.5-2.2-.4-2.9-1.1-2.9-1.4-.1-.6-.7-1.1-1.3-1-.1 0-.3.1-.4.1 3.3-4.6 6.7-9.2 9.6-13.3v-.1c.5-.7.9-1.4 1.3-2 .3-.6.1-1.3-.5-1.6-.6-.3-1.3-.1-1.6.5-2.1 3.7-6.7 8.2-13.8 13.1.8-2 1.4-4.1 1.7-6.2.1-.7.2-1.5-.1-2.3-.3-.7-.8-1.3-1.5-1.6-1.2-.5-2.5 0-3.2.3-3.5 1.7-6.5 4.1-8.7 6-.7.6-1.4 1.3-2.2 2 .2-1.5.2-3.1 0-4.7-.1-.9-.5-3.3-2.5-3.8-2.5-.6-7 1.8-11.4 5 1-1.9 2-3.9 3-6.1.3-.6 0-1.3-.6-1.5-.6-.3-1.3 0-1.5.6-1.9 4.1-3.7 7.6-5.5 10.7-4 3.3-7.2 6.6-7.7 7.9-.6 1.3-.1 2.1.2 2.4.5.5 1.3.7 2.2.4 2.2-.8 3.8-3.5 5-5.5.2-.3.3-.6.5-.8.6-.9 1.2-1.9 1.7-2.9.7-.5 1.3-1.1 2.1-1.6 6.5-5 10.3-6.5 11.5-6.1.1 0 .5.3.8 1.9.3 1.8.1 3.6-.1 5.4-.1.5-.1 1.1-.2 1.6-1.1 1.1-2.2 2.4-3.2 3.7-.4.5-1.1 1.4-1.1 2.6 0 .5.2.9.5 1.3.7.7 1.8.7 2.8 0 .8-.6 1.5-1.5 2-2.7.6-1.2.9-2.5 1.2-3.7 1.5-1.5 3-2.9 4.3-4 2.1-1.8 4.9-4.1 8.1-5.7.6-.3 1.1-.4 1.3-.3 0 0 .1 0 .1.2.1.3.1.8 0 1.2-.5 3-1.6 6.2-3.2 9.1-1.2.8-2.5 1.6-3.8 2.4-.7.5-.9.6-1.1.7-.3.2-.8.7-.9 1.3-.1.7.1 1.4.6 1.9.4.3.9.5 1.5.5 1.7 0 2.8-1.4 3.5-2.4l.1-.2c.6-.8 1.2-1.7 1.7-2.6 2.6-1.7 4.9-3.3 6.9-4.9-1.7 2.3-3.5 4.8-5.3 7.4-3.8 5.2-6.8 9.4-8.9 12.4-4.4 6.2-4.4 6.2-4.1 6.9.2.4.6.7 1.1.7.2 0 .3 0 .5-.1.3-.1.5-.3.6-.6.7-1.1 7.9-11.2 15.6-21.7v.3c.2 1.7 1.9 2.9 4.8 3.4.8.1 1.8.2 2.8.2 1.5 0 3.2-.2 4.9-.7 5.2-.8 12.2-7.3 18.1-13.9-.8 1.3-1.6 2.6-2.5 3.9-1.7 1.2-3.4 2.6-4.9 4.1l-.2.2c-1.2 1.2-3.7 3.7-2.7 5.8.3.7 1.1 1.1 1.8 1 .5-.1.9-.4 1-.5.9-.7 1.6-1.7 2.3-2.6l.2-.2c1.5-2 2.9-4 4.2-6.1 1-.7 2-1.4 3.1-2.1l.7-.5c2.6-1.8 7.3-5 11.3-4.4 1.2.2 1.4.7 1.5.9.5 1.1-.1 3.1-.9 4.7l-.1.2c-1.2 2.2-2.4 4.5-3.5 6.7l-.4.8c-1.1.5-2.2 1.1-3.2 1.9-.4.3-1.7 1.4-1.7 2.7 0 .6.3 1.2.8 1.6.4.3.9.4 1.4.4.3 0 .6-.1.9-.2 1.8-.6 2.6-2.5 3.2-3.9.1-.3.2-.5.3-.8 3.9-1.9 8.3-3.5 13-4.8.5-.2.8-.8.7-1.5z"/><linearGradient id="G" x1="239.921" x2="96.626" y1="176.478" y2="47.588" gradientUnits="userSpaceOnUse"><stop offset="0" stop-color="#808184"/><stop offset=".199" stop-color="#8D8E91"/><stop offset=".511" stop-color="#A8ABAD"/><stop offset=".664" stop-color="#939698"/><stop offset=".87" stop-color="#7D7F81"/><stop offset="1" stop-color="#757779"/></linearGradient><path fill="url(#G)" d="M183 103.6c0-13.3-10.8-24.1-24.1-24.1s-24.1 10.8-24.1 24.1 10.8 24.1 24.1 24.1 24.1-10.8 24.1-24.1zm-24.2 21.8c-12 0-21.8-9.8-21.8-21.8s9.8-21.8 21.8-21.8 21.8 9.8 21.8 21.8-9.7 21.8-21.8 21.8z"/><linearGradient id="H" x1="239.921" x2="96.626" y1="176.478" y2="47.588" gradientUnits="userSpaceOnUse"><stop offset="0" stop-color="#808184"/><stop offset=".199" stop-color="#8D8E91"/><stop offset=".511" stop-color="#A8ABAD"/><stop offset=".664" stop-color="#939698"/><stop offset=".87" stop-color="#7D7F81"/><stop offset="1" stop-color="#757779"/></linearGradient><path fill="url(#H)" d="M158.8 87.1c-9.1 0-16.5 7.4-16.5 16.5s7.4 16.5 16.5 16.5 16.5-7.4 16.5-16.5-7.4-16.5-16.5-16.5zm0 30.6c-7.8 0-14.2-6.4-14.2-14.2 0-7.8 6.4-14.2 14.2-14.2 7.8 0 14.2 6.4 14.2 14.2 0 7.9-6.4 14.2-14.2 14.2z"/><linearGradient id="I" x1="213.068" x2="69.773" y1="206.332" y2="77.443" gradientUnits="userSpaceOnUse"><stop offset="0" stop-color="#808184"/><stop offset=".199" stop-color="#8D8E91"/><stop offset=".511" stop-color="#A8ABAD"/><stop offset=".664" stop-color="#939698"/><stop offset=".87" stop-color="#7D7F81"/><stop offset="1" stop-color="#757779"/></linearGradient><path fill="url(#I)" d="M175.3 157.6c0-9.1-7.4-16.5-16.5-16.5s-16.5 7.4-16.5 16.5 7.4 16.5 16.5 16.5 16.5-7.5 16.5-16.5zm-16.5 14.1c-7.8 0-14.2-6.4-14.2-14.2 0-7.8 6.4-14.2 14.2-14.2 7.8 0 14.2 6.4 14.2 14.2 0 7.9-6.4 14.2-14.2 14.2z"/><linearGradient id="J" x1="211.943" x2="68.648" y1="207.583" y2="78.694" gradientUnits="userSpaceOnUse"><stop offset="0" stop-color="#808184"/><stop offset=".199" stop-color="#8D8E91"/><stop offset=".511" stop-color="#A8ABAD"/><stop offset=".664" stop-color="#939698"/><stop offset=".87" stop-color="#7D7F81"/><stop offset="1" stop-color="#757779"/></linearGradient><path fill="url(#J)" d="M120.4 103.6c0-13.3-10.8-24.1-24.1-24.1s-24.1 10.8-24.1 24.1 10.8 24.1 24.1 24.1 24.1-10.8 24.1-24.1zm-45.9 0c0-12 9.8-21.8 21.8-21.8s21.8 9.8 21.8 21.8-9.8 21.8-21.8 21.8-21.8-9.8-21.8-21.8z"/><linearGradient id="K" x1="211.943" x2="68.648" y1="207.583" y2="78.694" gradientUnits="userSpaceOnUse"><stop offset="0" stop-color="#808184"/><stop offset=".199" stop-color="#8D8E91"/><stop offset=".511" stop-color="#A8ABAD"/><stop offset=".664" stop-color="#939698"/><stop offset=".87" stop-color="#7D7F81"/><stop offset="1" stop-color="#757779"/></linearGradient><path fill="url(#K)" d="M112.8 103.6c0-9.1-7.4-16.5-16.5-16.5s-16.5 7.4-16.5 16.5S87.2 120 96.3 120s16.5-7.4 16.5-16.4zm-30.7 0c0-7.8 6.4-14.2 14.2-14.2 7.8 0 14.2 6.4 14.2 14.2 0 7.8-6.4 14.2-14.2 14.2-7.8-.1-14.2-6.4-14.2-14.2z"/><linearGradient id="L" x1="185.09" x2="41.795" y1="237.437" y2="108.548" gradientUnits="userSpaceOnUse"><stop offset="0" stop-color="#808184"/><stop offset=".199" stop-color="#8D8E91"/><stop offset=".511" stop-color="#A8ABAD"/><stop offset=".664" stop-color="#939698"/><stop offset=".87" stop-color="#7D7F81"/><stop offset="1" stop-color="#757779"/></linearGradient><path fill="url(#L)" d="M96.3 141.1c-9.1 0-16.5 7.4-16.5 16.5s7.4 16.5 16.5 16.5 16.5-7.4 16.5-16.5-7.4-16.5-16.5-16.5zm0 30.6c-7.8 0-14.2-6.4-14.2-14.2 0-7.8 6.4-14.2 14.2-14.2 7.8 0 14.2 6.4 14.2 14.2-.1 7.9-6.4 14.2-14.2 14.2z"/><linearGradient id="M" x1="185.09" x2="41.795" y1="237.437" y2="108.548" gradientUnits="userSpaceOnUse"><stop offset="0" stop-color="#808184"/><stop offset=".199" stop-color="#8D8E91"/><stop offset=".511" stop-color="#A8ABAD"/><stop offset=".664" stop-color="#939698"/><stop offset=".87" stop-color="#7D7F81"/><stop offset="1" stop-color="#757779"/></linearGradient><path fill="url(#M)" d="M96.3 133.4c-13.3 0-24.1 10.8-24.1 24.1s10.8 24.1 24.1 24.1 24.1-10.8 24.1-24.1c0-13.2-10.8-24.1-24.1-24.1zm0 46c-12 0-21.8-9.8-21.8-21.8s9.8-21.8 21.8-21.8 21.8 9.8 21.8 21.8-9.8 21.8-21.8 21.8z"/><linearGradient id="N" x1="212.506" x2="69.211" y1="206.958" y2="78.068" gradientUnits="userSpaceOnUse"><stop offset="0" stop-color="#808184"/><stop offset=".199" stop-color="#8D8E91"/><stop offset=".511" stop-color="#A8ABAD"/><stop offset=".664" stop-color="#939698"/><stop offset=".87" stop-color="#7D7F81"/><stop offset="1" stop-color="#757779"/></linearGradient><path fill="url(#N)" d="M175.5 130.6c9.3-5.8 15.1-15.9 15.1-27 0-17.5-14.2-31.7-31.7-31.7-15.7 0-28.8 11.5-31.3 26.4-2.5-15-15.6-26.4-31.3-26.4-17.5 0-31.7 14.2-31.7 31.7 0 11.1 5.7 21.2 15.1 27-9.3 5.8-15.1 15.9-15.1 27 0 17.5 14.2 31.7 31.7 31.7 15.7 0 28.8-11.5 31.3-26.4.9 5.3 3.1 10.1 6.3 14.2.4-.8.8-1.5 1.1-2.4-3.5-4.8-5.5-10.7-5.5-17.1 0-10.9 6-20.9 15.6-26l1.9-1-1.9-1c-9.6-5.1-15.6-15.1-15.6-26 0-16.2 13.2-29.4 29.4-29.4s29.4 13.2 29.4 29.4c0 10.9-6 20.9-15.6 26l-1.9 1 1.9 1c9.6 5.1 15.6 15.1 15.6 26 0 5.4-1.5 10.4-4 14.7.6-.1 1.3-.1 1.9-.1h.8c2.3-4.4 3.6-9.3 3.6-14.6 0-11.1-5.8-21.3-15.1-27zM96.3 187c-16.2 0-29.4-13.2-29.4-29.4 0-10.9 6-20.9 15.6-26l1.9-1-1.9-1c-9.6-5.1-15.6-15.1-15.6-26 0-16.2 13.2-29.4 29.4-29.4s29.4 13.2 29.4 29.4c0 10.9-6 20.9-15.6 26l-1.9 1 1.9 1c9.6 5.1 15.6 15.1 15.6 26 0 16.2-13.2 29.4-29.4 29.4zm45.9-56.4c-7.8 4.8-13.1 12.7-14.6 21.7-1.5-8.9-6.8-16.9-14.6-21.7 7.8-4.8 13.1-12.7 14.6-21.7 1.5 8.9 6.8 16.8 14.6 21.7z"/><linearGradient id="O" x1="199.757" x2="56.462" y1="221.131" y2="92.241" gradientUnits="userSpaceOnUse"><stop offset="0" stop-color="#808184"/><stop offset=".199" stop-color="#8D8E91"/><stop offset=".511" stop-color="#A8ABAD"/><stop offset=".664" stop-color="#939698"/><stop offset=".87" stop-color="#7D7F81"/><stop offset="1" stop-color="#757779"/></linearGradient><path fill="url(#O)" d="M152.8 180.5c.6-.5 1.2-1 1.9-1.5-.8-.2-1.7-.4-2.5-.6.3.6.4 1.3.6 2.1z"/><linearGradient id="P" x1="213.07" x2="69.775" y1="206.33" y2="77.441" gradientUnits="userSpaceOnUse"><stop offset="0" stop-color="#808184"/><stop offset=".199" stop-color="#8D8E91"/><stop offset=".511" stop-color="#A8ABAD"/><stop offset=".664" stop-color="#939698"/><stop offset=".87" stop-color="#7D7F81"/><stop offset="1" stop-color="#757779"/></linearGradient><path fill="url(#P)" d="M158.8 133.4c-13.3 0-24.1 10.8-24.1 24.1 0 5.5 1.8 10.5 4.9 14.6.1 0 .2.1.4.1 1 .5 1.7 1.4 1.9 2.5.3.3.6.6 1 .9.9-.4 1.8-.7 2.6-.8-5.1-4-8.5-10.2-8.5-17.2 0-12 9.8-21.8 21.8-21.8s21.8 9.8 21.8 21.8c0 8.8-5.2 16.4-12.7 19.8l.3.6c.2.6.3 1.2.3 1.7 1.6-.7 3.2-1.6 4.6-2.7 1.3-1.4 2.4-2.8 3-4 .5-1 1.5-1.6 2.6-1.8 2.7-3.9 4.3-8.6 4.3-13.7 0-13.2-10.8-24.1-24.2-24.1z"/></g></svg>