<?xml version="1.0" encoding="utf-8"?>
<!-- Generator: Adobe Illustrator 21.1.0, SVG Export Plug-In . SVG Version: 6.00 Build 0)  -->
<svg version="1.1" id="Layer_1" xmlns="http://www.w3.org/2000/svg" xmlns:xlink="http://www.w3.org/1999/xlink" x="0px" y="0px"
	 width="88px" height="92px" viewBox="0 0 88 92" enable-background="new 0 0 88 92" xml:space="preserve">
<g>
	<g>
		<path fill="#1A1A1A" d="M24.8,85.4H30c0.3,0,0.6,0.1,0.9,0.4s0.4,0.5,0.4,0.9v1.7c0,0.3-0.1,0.6-0.4,0.9s-0.5,0.4-0.9,0.4h-4v2.2
			h-1.2V85.4z M30,88.4v-1.7c0,0,0-0.1-0.1-0.1h-4c0,0-0.1,0-0.1,0.1v1.7c0,0,0,0.1,0.1,0.1L30,88.4C29.9,88.5,30,88.5,30,88.4z
			 M33.1,85.4h4c0.3,0,0.6,0.1,0.9,0.4s0.4,0.5,0.4,0.9v4c0,0.3-0.1,0.6-0.4,0.9S37.5,92,37.1,92h-4c-0.3,0-0.6-0.1-0.9-0.4
			s-0.4-0.5-0.4-0.9v-4c0-0.3,0.1-0.6,0.4-0.9S32.8,85.4,33.1,85.4z M33.1,90.7h4c0,0,0.1,0,0.1-0.1v-4c0,0,0-0.1-0.1-0.1h-4
			c0,0-0.1,0-0.1,0.1L33.1,90.7z M47.5,85.4h1.3l-2.4,6.5h-0.9l-1.7-4.6L42,91.9h-0.9l-2.4-6.5H40l1.6,4.3l1.6-4.3h1.2l1.6,4.3
			L47.5,85.4z M55.5,85.4v1.2h-4.8v1.5h3.8v1.2h-3.8v1.5h4.8V92h-6v-6.5L55.5,85.4L55.5,85.4z M62.9,86.7v1.7c0,0.3-0.1,0.6-0.4,0.9
			c-0.2,0.2-0.5,0.4-0.9,0.4h-0.4l1.6,1.9v0.3h-1.3l-1.9-2.2h-2.1v2.2h-1v-6.5h5.2c0.3,0,0.6,0.1,0.9,0.4
			C62.8,86.1,62.9,86.4,62.9,86.7z M57.7,88.5h4c0,0,0.1,0,0.1-0.1v-1.7c0,0,0-0.1-0.1-0.1h-4c0,0-0.1,0-0.1,0.1
			C57.6,86.7,57.7,88.5,57.7,88.5z"/>
	</g>
	
		<linearGradient id="SVGID_1_" gradientUnits="userSpaceOnUse" x1="20.92" y1="87.8516" x2="64.804" y2="12.6216" gradientTransform="matrix(1 0 0 -1 0 94.7)">
		<stop  offset="0" style="stop-color:#111111"/>
		<stop  offset="0.494" style="stop-color:#1A1A1A"/>
		<stop  offset="0.9" style="stop-color:#141414"/>
		<stop  offset="0.998" style="stop-color:#111111"/>
	</linearGradient>
	<circle fill="url(#SVGID_1_)" cx="42.7" cy="44.1" r="31.8"/>
	<g>
		<path fill="#1A1A1A" d="M7.8,17l2.6-3c0.2-0.3,0.5-0.4,0.8-0.4c0.3-0.1,0.6,0,0.9,0.3l3,2.6c0.3,0.1,0.4,0.4,0.5,0.8
			c0,0.3-0.1,0.6-0.3,0.9l-2.6,3c-0.2,0.2-0.5,0.4-0.8,0.4c-0.3,0-0.7,0-0.9-0.3l-3-2.6c-0.3-0.1-0.5-0.4-0.5-0.8
			C7.5,17.6,7.6,17.3,7.8,17z M11.8,20.4l2.6-3v-0.1l-3-2.6h-0.1l-2.6,3v0.1L11.8,20.4C11.8,20.5,11.8,20.5,11.8,20.4z M19.6,12.1
			l-3-3.7l0.9-0.7l4,5l-1,0.8l-6-1.2l3,3.7l-0.9,0.7l-4-5l1-0.8C13.6,10.9,19.6,12.1,19.6,12.1z M66.6,6.8l3.2,2.3
			c0.3,0.2,0.4,0.5,0.5,0.8s0,0.6-0.2,0.9L67.8,14c-0.2,0.3-0.5,0.5-0.8,0.5c-0.3,0.1-0.6,0-0.9-0.2L62.8,12
			c-0.3-0.2-0.5-0.5-0.5-0.8c-0.1-0.3,0-0.6,0.2-0.9l2.3-3.2c0.2-0.3,0.5-0.5,0.8-0.5S66.2,6.6,66.6,6.8z M63.5,11.1l3.2,2.3h0.1
			l2.3-3.2v-0.1l-3.2-2.3h-0.1L63.5,11.1z M72.1,11.1l4.2,4.2l-0.9,0.8l-3.3-3.4l-1,1l2.7,2.7L73,17.2l-2.8-2.6l-1.8,1.8l-0.9-0.8
			L72.1,11.1z M77.1,16.3l3.4,4.8l-1,0.7l-2.7-3.9l-1.2,0.8l2.2,3.1l-1,0.7l-2.2-3.1l-2.1,1.5l-0.7-1L77.1,16.3L77.1,16.3z"/>
	</g>
</g>
</svg>
